<?xml version="1.0" standalone="no"?>
<!DOCTYPE svg PUBLIC "-//W3C//DTD SVG 20010904//EN"
 "http://www.w3.org/TR/2001/REC-SVG-20010904/DTD/svg10.dtd">
<svg version="1.0" xmlns="http://www.w3.org/2000/svg"
 width="1000.000000pt" height="1000.000000pt" viewBox="0 0 1000.000000 1000.000000"
 preserveAspectRatio="xMidYMid meet">
<metadata>
Created by potrace 1.11, written by Peter Selinger 2001-2013
</metadata>
<g transform="translate(0.000000,1000.000000) scale(0.100000,-0.100000)"
fill="#000000" stroke="none">
<path d="M4555 9945 c-460 -43 -1087 -195 -1417 -344 -24 -10 -74 -31 -113
-47 -38 -15 -145 -65 -237 -110 -938 -466 -1719 -1237 -2187 -2159 -106 -209
-146 -295 -198 -430 -97 -251 -191 -561 -175 -577 5 -5 23 -10 40 -11 34 -2
41 -11 18 -20 -8 -3 -17 -1 -19 6 -3 7 -4 2 -4 -10 1 -13 5 -23 9 -23 4 0 8
-10 9 -22 0 -20 1 -21 8 -5 6 17 8 17 20 3 9 -11 10 -16 2 -16 -6 0 -11 -7
-11 -16 0 -9 5 -12 12 -8 8 5 9 2 5 -9 -4 -11 -1 -17 8 -17 8 0 15 -5 15 -11
0 -5 6 -7 13 -3 8 5 7 2 -2 -10 -8 -9 -20 -15 -27 -12 -7 3 -16 1 -19 -4 -10
-15 20 -18 37 -2 16 13 18 12 28 -12 5 -15 15 -24 20 -21 7 4 9 -3 6 -20 -7
-36 25 -68 56 -56 17 5 28 3 41 -11 9 -10 13 -18 7 -18 -5 0 -10 -5 -10 -11 0
-6 6 -9 14 -6 8 3 13 -1 12 -11 0 -9 5 -16 12 -15 6 2 12 -1 12 -6 0 -5 10 -7
23 -5 14 3 17 2 7 -3 -22 -11 -18 -45 5 -53 11 -4 23 -6 27 -3 5 2 8 -1 8 -6
0 -6 -13 -11 -30 -11 -16 0 -30 -5 -30 -11 0 -5 5 -7 10 -4 9 5 14 -6 12 -26
-1 -3 10 -5 23 -3 21 2 25 -2 26 -24 l1 -27 7 25 c6 21 8 22 14 8 3 -10 14
-18 24 -18 17 -1 17 -1 0 -14 -10 -8 -26 -13 -35 -11 -9 1 -11 0 -4 -2 7 -3
10 -9 6 -14 -8 -13 25 -24 38 -11 14 14 38 4 32 -13 -3 -7 3 -23 13 -34 18
-21 39 -30 28 -11 -3 6 -3 10 2 10 4 0 14 -13 21 -30 8 -16 17 -29 20 -29 18
3 22 -2 10 -15 -9 -10 -17 -11 -26 -4 -9 8 -11 7 -6 -6 4 -9 14 -16 23 -15 35
3 41 -1 37 -31 -2 -20 2 -34 13 -40 12 -7 13 -9 2 -10 -8 0 -12 -3 -8 -6 3 -3
11 -3 17 1 8 5 7 11 -2 23 -8 10 -9 13 -1 9 6 -4 13 -2 16 5 2 7 3 5 2 -4 -2
-10 1 -18 6 -18 6 0 5 -8 -1 -19 -7 -13 -7 -22 0 -26 5 -3 10 -1 10 4 0 6 10
10 23 10 15 -1 17 -3 5 -6 -17 -4 -34 -33 -19 -33 5 0 11 -9 14 -20 3 -11 10
-20 17 -20 6 0 8 5 4 12 -4 7 -3 8 5 4 17 -11 2 -29 -20 -23 -13 3 -19 0 -19
-10 0 -11 7 -14 25 -11 14 3 26 0 26 -6 1 -6 5 5 9 24 l7 35 2 -37 c1 -25 -4
-40 -15 -46 -13 -7 -14 -11 -3 -17 7 -5 14 -4 17 3 2 7 10 12 18 12 9 0 12 -4
9 -10 -3 -5 1 -10 9 -10 10 0 16 -9 16 -25 0 -23 34 -53 43 -37 2 4 2 1 1 -6
-2 -7 3 -15 11 -18 8 -3 11 -12 8 -22 -5 -11 -2 -14 10 -9 20 8 34 -12 16 -23
-10 -6 -6 -12 14 -21 26 -12 32 -24 29 -64 -2 -14 0 -16 6 -7 6 9 18 11 36 6
20 -5 24 -10 17 -17 -28 -28 -7 -56 42 -58 21 0 21 -1 2 -8 -13 -5 -20 -18
-21 -40 -1 -26 1 -30 13 -20 7 7 12 18 9 25 -8 20 6 25 20 6 9 -11 13 -13 14
-4 0 7 5 10 10 7 6 -4 7 -11 4 -17 -4 -6 0 -14 7 -19 9 -6 4 -7 -16 -3 -32 7
-29 -2 7 -20 13 -6 24 -21 26 -33 2 -13 14 -26 30 -32 27 -10 27 -10 5 -16
-13 -4 -23 -12 -23 -17 0 -6 7 -8 15 -4 8 3 15 0 15 -7 0 -9 2 -9 8 1 7 10 14
8 34 -7 14 -11 29 -17 33 -13 4 4 4 -3 1 -15 -5 -15 -1 -25 11 -35 10 -7 18
-19 19 -25 2 -31 5 -34 27 -29 l22 6 -22 -11 c-21 -11 -40 -40 -25 -38 4 1 17
-2 30 -6 19 -6 20 -10 10 -23 -11 -13 -10 -15 4 -10 19 8 33 -19 19 -36 -6 -8
-6 -17 1 -26 8 -12 9 -12 4 3 -4 13 0 17 22 17 16 0 22 -3 15 -8 -18 -12 -9
-44 15 -53 29 -11 28 -1 -1 11 -16 6 -17 9 -5 9 9 1 19 -3 23 -9 3 -5 11 -8
18 -6 7 1 9 1 5 -1 -5 -3 -8 -9 -8 -14 0 -6 5 -7 10 -4 6 3 10 -1 10 -9 0 -19
-11 -20 -29 -3 -10 10 -10 7 0 -15 6 -15 15 -25 20 -23 11 7 40 -6 34 -15 -3
-5 6 -18 21 -29 14 -11 23 -24 20 -30 -3 -5 6 -12 19 -15 14 -4 23 -11 20 -16
-6 -9 8 -14 28 -11 4 0 7 -6 7 -15 0 -8 -4 -12 -10 -9 -5 3 -10 -1 -10 -10 0
-15 29 -18 40 -4 3 4 12 0 20 -9 13 -14 12 -15 -3 -9 -9 3 -17 2 -17 -4 0 -6
-6 -7 -12 -3 -7 4 -3 -4 10 -18 12 -13 19 -28 15 -32 -4 -4 -1 -11 7 -16 21
-14 32 -12 24 3 -6 9 -5 9 7 0 22 -18 22 -62 0 -71 -18 -7 -17 -8 5 -25 13
-10 24 -14 24 -8 0 5 -5 11 -12 13 -6 2 -8 9 -5 15 5 7 20 -1 43 -23 20 -18
40 -31 45 -28 9 5 13 -9 10 -34 -1 -6 3 -12 9 -12 6 0 8 -6 4 -12 -6 -10 -4
-10 7 -1 23 22 30 14 12 -14 l-17 -26 27 7 c22 5 27 3 27 -13 0 -11 -5 -21
-12 -23 -8 -3 -8 -9 -1 -22 9 -16 11 -16 16 -2 4 10 17 16 34 15 l28 -1 -25
-8 c-14 -4 -19 -8 -12 -9 7 -1 10 -5 7 -11 -3 -5 0 -7 8 -4 8 3 18 1 22 -5 3
-6 1 -11 -4 -11 -6 0 -11 -11 -11 -25 0 -14 5 -25 11 -25 5 0 8 4 5 9 -3 5 0
14 8 20 10 9 15 8 20 -4 4 -11 2 -14 -6 -9 -8 5 -9 2 -5 -9 3 -10 2 -17 -3
-17 -6 0 -10 -4 -10 -9 0 -4 12 -6 27 -3 26 5 27 4 10 -12 -13 -14 -14 -20 -4
-30 6 -8 18 -11 26 -8 9 3 12 1 7 -6 -4 -7 -2 -12 3 -12 8 0 11 728 11 2434 0
2310 1 2435 18 2440 28 8 294 35 457 46 264 17 1128 33 1480 27 211 -4 387
-12 465 -22 464 -57 769 -144 1125 -320 545 -269 934 -648 1221 -1190 82 -155
140 -294 209 -500 282 -845 306 -1941 64 -2854 -212 -796 -644 -1431 -1248
-1834 -527 -353 -1093 -525 -1786 -544 -121 -3 -229 -10 -240 -16 -13 -7 -20
-7 -23 2 -6 17 -22 13 -22 -5 0 -12 7 -15 27 -11 33 6 53 -1 53 -19 0 -16 -16
-19 -23 -4 -3 6 -4 5 -3 -2 1 -7 14 -14 28 -16 15 -2 28 -11 31 -22 3 -14 1
-17 -12 -13 -12 4 -11 2 3 -9 12 -10 17 -21 13 -32 -4 -10 -3 -15 3 -11 6 3
10 13 10 21 0 8 5 14 11 14 6 0 8 -9 4 -22 -11 -34 -11 -36 -2 -37 24 -3 37 0
33 8 -3 5 2 12 11 15 10 4 14 4 11 0 -4 -4 -2 -16 4 -28 7 -11 11 -29 9 -40
-2 -11 2 -16 8 -11 7 4 10 1 9 -7 -2 -7 3 -12 10 -10 6 1 12 -3 12 -9 0 -6 9
-8 23 -4 15 4 18 3 8 -3 -10 -7 -10 -11 -1 -14 9 -3 8 -9 -5 -22 -14 -14 -16
-22 -7 -42 13 -26 27 -31 36 -11 2 6 4 1 3 -12 -2 -18 3 -24 19 -26 11 -1 30
-8 42 -17 20 -14 21 -17 7 -28 -13 -11 -13 -15 -3 -22 10 -6 10 -10 -2 -18 -8
-5 -10 -10 -5 -10 6 0 17 6 23 12 10 10 14 8 18 -10 4 -12 12 -22 19 -22 8 0
17 -10 21 -22 7 -22 7 -22 15 -3 7 16 8 15 6 -9 -2 -26 1 -30 26 -31 30 -2 51
-15 24 -15 -9 0 -17 -5 -17 -11 0 -5 -4 -8 -9 -5 -10 6 -25 -24 -16 -32 3 -3
5 0 5 6 0 7 7 12 16 12 10 0 14 -6 10 -15 -3 -9 0 -15 10 -15 12 0 15 6 11 21
-4 13 -2 18 3 13 5 -5 10 -20 12 -34 2 -14 7 -30 11 -37 4 -6 2 -14 -3 -16 -6
-3 -5 -4 1 -3 7 1 13 10 15 19 1 10 -2 14 -8 11 -7 -4 -8 -2 -4 4 11 17 29 15
22 -3 -3 -8 -1 -15 4 -15 6 0 6 -10 0 -26 -10 -25 -9 -25 22 -19 28 5 30 4 14
-6 -10 -6 -14 -14 -9 -18 5 -3 14 -17 21 -31 7 -15 10 -17 7 -5 -5 15 -3 17 6
8 14 -14 2 -36 -17 -29 -8 3 -14 0 -14 -5 0 -6 9 -9 20 -6 10 3 21 0 24 -7 2
-6 5 4 5 22 1 17 5 32 10 32 5 0 8 -8 6 -18 -13 -61 -17 -72 -25 -67 -6 3 -7
-1 -4 -9 8 -20 24 -21 24 -1 0 8 9 15 20 15 13 0 18 -5 14 -15 -4 -8 -1 -15 5
-15 6 0 11 -9 11 -20 0 -26 39 -47 52 -29 6 10 7 7 3 -9 -4 -15 -1 -24 9 -28
9 -3 13 -10 10 -15 -3 -5 0 -8 7 -7 6 2 14 -3 16 -9 3 -7 -1 -13 -8 -13 -7 0
-4 -8 9 -20 12 -11 25 -20 31 -20 13 0 21 -27 15 -47 -4 -12 -3 -14 3 -6 4 6
20 9 36 6 22 -4 25 -8 13 -17 -7 -6 -17 -24 -20 -41 -4 -18 -3 -25 2 -17 5 7
16 10 24 7 11 -4 18 0 20 12 3 15 5 15 10 -5 3 -12 2 -20 -3 -16 -5 3 -9 -2
-9 -11 0 -8 -7 -18 -15 -21 -8 -4 -12 -11 -8 -17 4 -6 11 -3 20 9 12 16 15 17
23 4 6 -8 8 -21 5 -27 -6 -17 0 -16 17 0 11 12 16 12 26 0 8 -8 9 -13 2 -14
-5 -1 -14 -3 -20 -4 -5 -1 -13 -3 -16 -4 -9 -2 24 -31 35 -31 6 0 11 5 11 10
0 20 19 9 37 -20 l17 -30 100 0 c55 0 138 4 185 10 47 5 149 14 226 20 164 13
397 45 475 65 30 8 111 26 179 41 194 41 505 139 731 231 133 54 452 207 540
258 25 15 77 45 115 67 89 52 308 196 405 267 489 359 901 797 1237 1316 367
567 627 1252 723 1904 11 73 22 136 24 140 3 4 12 94 21 201 14 157 16 261 11
535 -6 337 -10 392 -55 680 -108 694 -359 1342 -757 1951 -92 141 -271 379
-383 509 -110 129 -387 406 -516 516 -422 363 -948 678 -1455 871 -281 106
-679 217 -910 253 -58 9 -145 23 -195 31 -255 43 -820 57 -1120 29z m-4205
-3777 c0 -16 -3 -19 -11 -11 -6 6 -8 16 -5 22 11 17 16 13 16 -11z m37 -70
c-3 -8 -6 -5 -6 6 -1 11 2 17 5 13 3 -3 4 -12 1 -19z m46 -75 c-6 -15 -4 -16
8 -6 13 10 16 10 16 -5 0 -21 -15 -32 -34 -25 -18 7 -17 53 2 53 10 0 12 -6 8
-17z m664 -819 c-3 -3 -12 -4 -19 -1 -8 3 -5 6 6 6 11 1 17 -2 13 -5z m83
-124 c0 -5 -2 -10 -4 -10 -3 0 -8 5 -11 10 -3 6 -1 10 4 10 6 0 11 -4 11 -10z
m565 -730 c-3 -5 -11 -10 -16 -10 -6 0 -7 5 -4 10 3 6 11 10 16 10 6 0 7 -4 4
-10z m95 -134 c0 -2 -7 -7 -16 -10 -8 -3 -12 -2 -9 4 6 10 25 14 25 6z m17
-22 c-3 -3 -12 -4 -19 -1 -8 3 -5 6 6 6 11 1 17 -2 13 -5z m313 -444 c0 -5 -5
-10 -11 -10 -5 0 -7 5 -4 10 3 6 8 10 11 10 2 0 4 -4 4 -10z m1910 -2499 c0
-5 -7 -12 -16 -15 -14 -5 -15 -4 -4 9 14 17 20 19 20 6z m140 -197 c0 -2 -9
-4 -21 -4 -11 0 -18 4 -14 10 5 8 35 3 35 -6z m40 -44 c0 -5 -4 -10 -10 -10
-5 0 -10 5 -10 10 0 6 5 10 10 10 6 0 10 -4 10 -10z m380 -495 c0 -8 -2 -15
-4 -15 -2 0 -6 7 -10 15 -3 8 -1 15 4 15 6 0 10 -7 10 -15z m70 -85 c0 -5 -4
-10 -10 -10 -5 0 -10 5 -10 10 0 6 5 10 10 10 6 0 10 -4 10 -10z m45 -60 c3
-5 2 -10 -4 -10 -5 0 -13 5 -16 10 -3 6 -2 10 4 10 5 0 13 -4 16 -10z m132
-192 c-3 -8 -6 -5 -6 6 -1 11 2 17 5 13 3 -3 4 -12 1 -19z"/>
<path d="M3605 7904 c-155 -10 -485 -35 -528 -41 l-47 -6 2 -2621 c2 -1441 7
-2630 11 -2641 7 -16 7 -17 -2 -5 -9 13 -11 12 -11 -6 0 -12 7 -25 16 -28 9
-3 14 -12 11 -20 -3 -8 8 -19 29 -30 19 -9 39 -27 44 -41 6 -15 17 -25 30 -25
26 0 26 -20 0 -27 -28 -7 -25 -21 4 -18 34 4 78 -26 66 -45 -8 -12 -10 -12
-10 -1 0 8 -6 11 -16 7 -11 -4 -15 -2 -11 7 3 8 -3 13 -14 14 -17 2 -18 0 -4
-13 8 -9 15 -23 15 -32 0 -15 2 -15 10 -2 8 13 10 12 10 -2 0 -20 16 -24 22
-6 3 9 10 8 25 -3 20 -14 23 -19 23 -40 0 -6 7 -9 14 -6 10 4 13 1 9 -9 -4
-11 -8 -12 -19 -3 -17 14 -66 21 -58 8 3 -5 10 -7 15 -4 13 8 42 -22 34 -35
-4 -6 -3 -10 2 -9 15 4 63 -24 63 -37 0 -23 86 -27 550 -28 391 -1 472 2 575
17 270 41 480 102 685 199 654 310 1071 886 1239 1714 71 351 95 601 95 989 0
322 -13 481 -60 760 -135 806 -463 1359 -1024 1728 -268 175 -557 278 -911
322 -119 15 -734 28 -884 19z m-490 -5382 c-6 -7 -34 11 -29 19 3 5 11 3 19
-4 7 -6 12 -13 10 -15z"/>
<path d="M470 5911 c0 -10 19 -25 25 -20 1 2 -3 10 -11 17 -8 7 -14 8 -14 3z"/>
<path d="M525 5880 c3 -5 11 -10 16 -10 6 0 7 5 4 10 -3 6 -11 10 -16 10 -6 0
-7 -4 -4 -10z"/>
<path d="M705 5599 c-4 -6 -5 -12 -2 -15 2 -3 7 2 10 11 7 17 1 20 -8 4z"/>
<path d="M737 5604 c-4 -4 -7 -12 -7 -18 0 -6 5 -4 10 4 9 13 11 13 21 0 9
-12 10 -12 7 -1 -5 17 -21 25 -31 15z"/>
<path d="M795 5530 c-3 -5 -1 -10 4 -10 6 0 11 5 11 10 0 6 -2 10 -4 10 -3 0
-8 -4 -11 -10z"/>
<path d="M990 5176 c0 -9 5 -16 10 -16 6 0 10 4 10 9 0 6 -4 13 -10 16 -5 3
-10 -1 -10 -9z"/>
<path d="M1025 5150 c-3 -6 1 -7 9 -4 18 7 21 14 7 14 -6 0 -13 -4 -16 -10z"/>
<path d="M1079 5111 c9 -6 11 -16 7 -27 -6 -15 -4 -16 5 -7 14 14 5 43 -13 43
-10 0 -9 -3 1 -9z"/>
<path d="M1156 5005 c4 -8 10 -12 15 -9 14 8 10 24 -6 24 -9 0 -12 -6 -9 -15z"/>
<path d="M1182 4965 c7 -6 19 -17 27 -25 11 -13 12 -12 3 6 -6 12 -9 23 -7 26
2 2 -5 4 -16 4 -16 0 -18 -3 -7 -11z"/>
<path d="M1287 4873 c-11 -11 -8 -20 7 -20 8 0 12 6 9 14 -6 15 -7 15 -16 6z"/>
<path d="M1376 4755 c-7 -19 3 -47 15 -39 5 3 9 0 9 -5 0 -6 7 -11 15 -11 8 0
15 4 15 9 0 15 -29 33 -41 26 -8 -5 -9 -1 -4 14 7 24 0 29 -9 6z"/>
<path d="M1435 4689 c-4 -6 -5 -12 -2 -15 2 -3 7 2 10 11 7 17 1 20 -8 4z"/>
<path d="M1425 4649 c4 -5 11 -6 17 -3 8 5 9 1 4 -11 -5 -15 -4 -16 9 -5 18
15 16 19 -14 25 -12 2 -19 0 -16 -6z"/>
<path d="M1705 4299 c-11 -16 -1 -19 13 -3 7 8 8 14 3 14 -5 0 -13 -5 -16 -11z"/>
<path d="M1748 4203 c7 -3 16 -2 19 1 4 3 -2 6 -13 5 -11 0 -14 -3 -6 -6z"/>
<path d="M1810 4140 c0 -5 5 -10 10 -10 6 0 10 5 10 10 0 6 -4 10 -10 10 -5 0
-10 -4 -10 -10z"/>
<path d="M1880 4036 c0 -2 9 -6 20 -9 11 -3 20 -1 20 4 0 5 -9 9 -20 9 -11 0
-20 -2 -20 -4z"/>
<path d="M1939 3976 c8 -10 9 -16 1 -19 -6 -3 -5 -4 2 -3 19 4 20 23 2 30 -14
5 -15 4 -5 -8z"/>
<path d="M2046 3817 c3 -10 9 -15 12 -12 3 3 0 11 -7 18 -10 9 -11 8 -5 -6z"/>
<path d="M2126 3698 c3 -5 10 -6 15 -3 13 9 11 12 -6 12 -8 0 -12 -4 -9 -9z"/>
<path d="M2150 3670 c0 -5 5 -10 10 -10 6 0 10 5 10 10 0 6 -4 10 -10 10 -5 0
-10 -4 -10 -10z"/>
<path d="M3097 2483 c-11 -11 -8 -20 7 -20 8 0 12 6 9 14 -6 15 -7 15 -16 6z"/>
<path d="M3235 2300 c-3 -5 -2 -10 4 -10 5 0 13 5 16 10 3 6 2 10 -4 10 -5 0
-13 -4 -16 -10z"/>
<path d="M3290 2200 c8 -5 20 -10 25 -10 6 0 3 5 -5 10 -8 5 -19 10 -25 10 -5
0 -3 -5 5 -10z"/>
<path d="M4093 1131 c0 -11 5 -18 9 -15 4 3 5 11 1 19 -7 21 -12 19 -10 -4z"/>
<path d="M4136 1105 c4 -8 12 -15 20 -15 19 0 18 16 -2 24 -22 9 -24 8 -18 -9z"/>
<path d="M4230 970 c0 -5 5 -10 10 -10 6 0 10 5 10 10 0 6 -4 10 -10 10 -5 0
-10 -4 -10 -10z"/>
<path d="M4315 820 c-3 -6 1 -7 9 -4 18 7 21 14 7 14 -6 0 -13 -4 -16 -10z"/>
<path d="M4400 674 c0 -9 5 -14 12 -12 18 6 21 28 4 28 -9 0 -16 -7 -16 -16z"/>
<path d="M4486 604 c-9 -24 -7 -27 9 -10 17 17 19 26 6 26 -5 0 -12 -7 -15
-16z"/>
<path d="M4610 441 c0 -5 5 -13 10 -16 6 -3 10 -2 10 4 0 5 -4 13 -10 16 -5 3
-10 2 -10 -4z"/>
<path d="M4655 380 c3 -5 8 -10 11 -10 2 0 4 5 4 10 0 6 -5 10 -11 10 -5 0 -7
-4 -4 -10z"/>
<path d="M4690 340 c0 -5 5 -10 11 -10 5 0 7 5 4 10 -3 6 -8 10 -11 10 -2 0
-4 -4 -4 -10z"/>
<path d="M4877 59 c7 -7 15 -10 18 -7 3 3 -2 9 -12 12 -14 6 -15 5 -6 -5z"/>
<path d="M4930 60 c-12 -7 -10 -9 8 -7 12 0 22 5 22 9 0 11 -12 10 -30 -2z"/>
</g>
</svg>
